# xmcd
#
# Track frame offsets:
#	150
#	14453
#	30917
#	48057
#	63594
#	79120
#	97048
#	110734
#	125841
#	143540
#	160652
#	172316
#	188327
#	206023
#	226310
#	240313
#	259055
#	273198
#	290693
#	305201
#	323480
#
# Disc length: 4470 seconds
#
# Revision: 1
# Processed by: cddbd v1.5.2PL0 Copyright (c) Steve Scherf et al.
# Submitted via: audiograbber 1.83.01
#
DISCID=22117415
DTITLE=CDX - Volume 482
DYEAR=2009
DGENRE=
TTITLE0=Hank Williams Jr - All The Roads f Grascals
TTITLE1=John Anderson - Bigger Hands
TTITLE2=Ryan Bingham - Country Roads
TTITLE3=Kellie Pickler - Didn't You Know How Much I Loved You
TTITLE4=Phil Vassar - Everywhere I Go
TTITLE5=Diamond Rio - God Is There
TTITLE6=Brooks and Dunn f Billy Gibbons - Honky Tonk Stomp
TTITLE7=Houston County - I Can't Make It Rain
TTITLE8=Lady Antebellum - Need You Now
TTITLE9=Miranda Lambert - White Liar
TTITLE10=John Fogerty f Bruce Springsteen - When Will I Be Loved
TTITLE11=Lee Greenwood - Why Lie
TTITLE12=New Relics - Beautiful
TTITLE13=Ben Wasson - Call Me The Breeze
TTITLE14=Emil - Cloud Of Dust
TTITLE15=Sammy Sadler f Steve Wariner - I'll Always Have Denver
TTITLE16=Bill Gentry - I Want What You Want
TTITLE17=Colt Ford - Mister Goodtime
TTITLE18=Anna Garrott - What A Way To Go
TTITLE19=Kacey Jones - I Can Always Get Skinny But You'll Never Be Tall
TTITLE20=Ronnie Milsap - My First Ride
EXTD=
EXTT0=
EXTT1=
EXTT2=
EXTT3=
EXTT4=
EXTT5=
EXTT6=
EXTT7=
EXTT8=
EXTT9=
EXTT10=
EXTT11=
EXTT12=
EXTT13=
EXTT14=
EXTT15=
EXTT16=
EXTT17=
EXTT18=
EXTT19=
EXTT20=
PLAYORDER=
